# xmcd
#
# Track frame offsets:
#	150
#	18912
#	35498
#	55560
#	70939
#	85433
#	107104
#	124325
#	138913
#	157033
#	172697
#	189589
#	205366
#	219654
#	239075
#	259246
#
# Disc length: 3756 seconds
#
# Revision: 0
# Processed by: cddbd v1.5.2PL0 Copyright (c) Steve Scherf et al.
# Submitted via: audiograbber 1.83.01
#
DISCID=e90eaa10
DTITLE=Nightmare Gang - Nightmare Gang
DYEAR=2015
DGENRE=Rap
TTITLE0=Waka Flocka Flam, Bakery Bred, A-Wax - What's Poppin'?
TTITLE1=Frenchie, Bakery Bred, A-Wax - Come For You
TTITLE2=Wooh Da Kid, Bakery Bred, A-Wax - Nightmare
TTITLE3=Bakery Bred, A-Wax - Hunnit Rounds
TTITLE4=A-Wax, Kayso, Bakery Bred - Crime Scene
TTITLE5=A-Wax, Frenchie, Bakery Bred - Alibi
TTITLE6=A-Wax, Bakery Bred - Tug Of War
TTITLE7=Wooh Da Kid, A-Wax, Bakery Bred - Rake The Leaves
TTITLE8=A-Wax, Bakery Bred - Steppin' On It
TTITLE9=Bakery Bred, A-Wax - In The Sky
TTITLE10=Wooh Da Kid, A-Wax, Bakery Bred - Money Love
TTITLE11=A-Wax, Bakery Bred - My Momma House
TTITLE12=Bakery Bred, A-Wax - Drug Game
TTITLE13=Wooh Da Kid, Y.G. Slick, Bakery Bred, A-Wax - Bang
TTITLE14=Frenchie, Bakery Bred, A-Wax - Street Life
TTITLE15=Frenchie, Y.G. Slick, Bakery Bred, A-Wax - Russian Roulette
EXTD=www.RapMusicGuide.com
EXTT0=
EXTT1=
EXTT2=
EXTT3=
EXTT4=
EXTT5=
EXTT6=
EXTT7=
EXTT8=
EXTT9=
EXTT10=
EXTT11=
EXTT12=
EXTT13=
EXTT14=
EXTT15=
PLAYORDER=
